<svg height="484pt" viewBox="1 1 484 484.906" width="484pt" xmlns="http://www.w3.org/2000/svg"><path d="m32.785156 8.082031h420.335938c13.390625 0 24.25 10.859375 24.25 24.25v355.667969c0 13.394531-10.859375 24.25-24.25 24.25h-420.335938c-13.390625 0-24.25-10.855469-24.25-24.25v-355.667969c0-13.390625 10.859375-24.25 24.25-24.25zm0 0" fill="#7d8d9c"/><g fill="#fcf05a"><path d="m434.203125 137.417969c-3.363281 0-6.535156 1.5625-8.582031 4.226562l-158.417969 205.941407h72.75l32.332031-40.417969v40.417969h72.75v-199.339844c0-5.980469-4.847656-10.828125-10.832031-10.828125zm0 0"/><path d="m170.203125 347.585938h97v-88.917969l-16.84375-48.5h-63.3125l-16.84375 48.5zm0 0"/><path d="m137.871094 299.082031h-80.835938l16.167969-97h48.5zm0 0"/><path d="m70.449219 149.542969c13.464843 0 13.464843 8.082031 26.933593 8.082031s13.46875-8.082031 26.9375-8.082031c13.492188 0 13.492188 8.082031 26.984376 8.082031.308593 0 .527343-.054688.824218-.0625.390625-1.3125.792969-2.609375 1.132813-3.976562 7.972656-32.335938-47.835938-64.667969-55.808594-80.835938-7.972656 16.167969-63.777344 48.5-55.804687 80.835938.335937 1.371093.742187 2.667968 1.132812 3.984374.269531.003907.460938.054688.738281.054688 13.464844 0 13.464844-8.082031 26.929688-8.082031zm0 0"/></g><path d="m151.304688 157.625c-13.492188 0-13.492188-8.082031-26.984376-8.082031-13.46875 0-13.46875 8.082031-26.9375 8.082031s-13.46875-8.082031-26.933593-8.082031c-13.464844 0-13.464844 8.082031-26.929688 8.082031-.277343 0-.472656-.050781-.738281-.058594 5.292969 17.714844 16.058594 33.296875 30.753906 44.515625h47.835938c14.695312-11.21875 25.464844-26.804687 30.757812-44.519531-.296875.007812-.515625.0625-.824218.0625zm0 0" fill="#fdbd40"/><path d="m129.785156 274.832031h-32.332031c-4.464844 0-8.082031-3.617187-8.082031-8.082031s3.617187-8.082031 8.082031-8.082031h32.332031c4.464844 0 8.085938 3.617187 8.085938 8.082031s-3.621094 8.082031-8.085938 8.082031zm0 0" fill="#fdbd40"/><path d="m267.203125 258.667969c-7.605469 3.953125-15.789063 6.679687-24.25 8.082031-8.457031-1.402344-16.640625-4.128906-24.25-8.082031v88.914062h48.5zm0 0" fill="#e97424"/><path d="m218.703125 258.667969c-7.609375 3.953125-15.792969 6.679687-24.25 8.082031-8.457031-1.402344-16.640625-4.128906-24.25-8.082031v88.914062h48.5zm0 0" fill="#fdbd40"/><path d="m230.402344 152.730469c-3.230469-6.460938-11.085938-9.078125-17.546875-5.847657-2.535157 1.265626-4.585938 3.316407-5.851563 5.847657l-19.953125 57.4375h63.304688zm0 0" fill="#fdbd40"/><path d="m57.035156 299.082031h80.832032v48.503907h-80.832032zm0 0" fill="#fdbd40"/><path d="m32.785156 8.082031h420.335938c13.390625 0 24.25 10.859375 24.25 24.25v8.085938h-468.835938v-8.085938c0-13.390625 10.859375-24.25 24.25-24.25zm0 0" fill="#394d5c"/><path d="m8.535156 347.585938h468.835938v40.414062c0 13.394531-10.859375 24.25-24.25 24.25h-420.335938c-13.390625 0-24.25-10.855469-24.25-24.25zm0 0" fill="#394d5c"/><path d="m404.621094 210.167969h40.414062v16.167969h-40.414062zm0 0" fill="#fdbd40"/><path d="m420.785156 242.5h24.25v16.167969h-24.25zm0 0" fill="#fdbd40"/><path d="m404.621094 274.832031h40.414062v16.167969h-40.414062zm0 0" fill="#fdbd40"/><path d="m420.785156 307.167969h24.25v16.167969h-24.25zm0 0" fill="#fdbd40"/><path d="m178.285156 412.25h129.335938v32.335938h-129.335938zm0 0" fill="#cfdfe8"/><path d="m137.871094 444.585938h210.164062c17.859375 0 32.335938 14.472656 32.335938 32.332031h-274.835938c0-17.859375 14.476563-32.332031 32.335938-32.332031zm0 0" fill="#394d5c"/><path d="m194.453125 371.832031h16.167969v16.167969h-16.167969zm0 0" fill="#fdbd40"/><path d="m226.785156 371.832031h32.335938v16.167969h-32.335938zm0 0" fill="#fdbd40"/><path d="m275.285156 371.832031h16.167969v16.167969h-16.167969zm0 0" fill="#fdbd40"/><path d="m445.035156 113.167969h-16.164062v-32.335938h-80.835938v-16.164062h97zm0 0" fill="#fff"/><path d="m315.703125 64.667969h16.167969v16.164062h-16.167969zm0 0" fill="#fff"/><path d="m453.121094 0h-420.335938c-17.847656.0195312-32.3125 14.484375-32.332031 32.332031v355.667969c.019531 17.847656 14.484375 32.3125 32.332031 32.332031h137.417969v16.167969h-32.332031c-22.3125.027344-40.390625 18.105469-40.417969 40.417969v8.082031h291v-8.082031c-.027344-22.3125-18.105469-40.390625-40.417969-40.417969h-32.332031v-16.167969h137.417969c17.847656-.019531 32.3125-14.484375 32.332031-32.332031v-355.667969c-.019531-17.847656-14.484375-32.3124998-32.332031-32.332031zm-420.335938 16.167969h420.335938c8.921875.007812 16.15625 7.242187 16.164062 16.167969h-452.664062c.007812-8.925782 7.242187-16.160157 16.164062-16.167969zm315.25 436.5c10.273438.011719 19.429688 6.484375 22.867188 16.164062h-255.898438c3.4375-9.679687 12.59375-16.152343 22.867188-16.164062zm-48.5-16.167969h-113.164062v-16.167969h113.164062zm169.75-48.5c-.007812 8.925781-7.242187 16.15625-16.164062 16.167969h-420.335938c-8.921875-.011719-16.15625-7.242188-16.164062-16.167969v-32.332031h452.664062zm-323.582031-239.390625c-1.300781-.546875-2.550781-1.203125-3.742187-1.957031-10.734376-6.925782-24.535157-6.925782-35.273438 0-5.605469 3.851562-13.007812 3.851562-18.613281 0-5.210938-3.480469-11.359375-5.292969-17.625-5.195313-6.265625-.097656-12.414063 1.714844-17.625 5.195313-1.121094.699218-2.285157 1.324218-3.484375 1.867187-.105469.046875-.210938.105469-.316406.148438-1.25-16.636719 19.621093-35.742188 35.105468-49.914063 5.128906-4.699218 9.6875-8.867187 13.324219-12.734375 3.632813 3.867188 8.191406 8.035157 13.324219 12.734375 15.488281 14.171875 36.371094 33.292969 35.101562 49.9375zm-91.636719 15.394531c.949219-.34375 1.878906-.742187 2.785156-1.191406.382813-.183594.828126-.339844 1.183594-.527344 1.148438-.601562 2.175782-1.210937 3.109375-1.769531 2.691407-1.972656 5.964844-2.992187 9.300781-2.890625 3.339844-.101562 6.613282.914062 9.308594 2.890625 10.730469 6.925781 24.523438 6.925781 35.253906 0 5.617188-3.851563 13.027344-3.851563 18.644532 0 .9375.558594 1.96875 1.171875 3.125 1.773437.367187.191407.820312.351563 1.210937.539063.910157.445313 1.839844.84375 2.789063 1.1875.125.039063.207031.097656.332031.136719-5.09375 11.546875-12.78125 21.761718-22.46875 29.847656h-42.402344c-9.722656-8.058594-17.417969-18.289062-22.46875-29.871094.113281-.035156.1875-.085937.296875-.125zm25.984375 46.164063h34.804688l8.082031 48.5h-25.484375c-4.464844 0-8.082031 3.617187-8.082031 8.082031s3.617187 8.085938 8.082031 8.085938h28.179687l2.691407 16.167968h-61.746094zm-14.929687 97h64.664062v32.332031h-64.664062zm371.832031-97h-32.332031v16.167969h32.332031v16.164062h-16.167969v16.167969h16.167969v16.167969h-32.332031v16.167968h32.332031v16.167969h-16.167969v16.164063h16.167969v16.167968h-56.582031v-32.332031c-.003906-4.464844-3.625-8.085937-8.089844-8.082031-2.453125 0-4.773438 1.113281-6.304688 3.03125l-29.910156 37.382812h-52.449218l148.40625-192.925781c1.070312-1.15625 2.875-1.226563 4.027343-.15625.515625.476563.835938 1.128906.902344 1.828125zm-72.75 129.332031h-7.433594l7.433594-9.289062zm-137.417969-68.496094c5.144532 2.148438 10.605469 3.441406 16.167969 3.828125 5.5625-.386719 11.023437-1.679687 16.167969-3.828125v68.496094h-32.332032v-68.496094zm-33.980468-52.753906h51.800781l12.542969 36.109375c-4.492188 2.132813-9.273438 3.582031-14.195313 4.308594-7.207031-1.347657-14.164063-3.789063-20.636719-7.230469-.199218-.101562-.417968-.132812-.621094-.214844-.613281-.277344-1.269531-.449218-1.9375-.511718-1.035156-.125-2.082031-.066407-3.09375.175781-.304687.085937-.601562.191406-.894531.3125-.222656.085937-.464843.128906-.683593.234375-6.46875 3.449218-13.425782 5.890625-20.632813 7.230468-4.921875-.726562-9.703125-2.179687-14.195313-4.308593zm5.609374-16.167969 16.015626-46.089843c1.636718-2.359376 4.875-2.949219 7.238281-1.3125.511719.355468.957031.800781 1.3125 1.3125l16.011719 46.089843zm-20.128906 68.921875c5.144532 2.148438 10.605469 3.441406 16.167969 3.828125 5.5625-.386719 11.023437-1.679687 16.167969-3.828125v68.496094h-32.332032v-68.496094zm291 68.496094h-16.164062v-191.253906c0-10.445313-8.46875-18.910156-18.914063-18.914063-5.875 0-11.414062 2.730469-14.996093 7.390625l-143.925782 187.097656v-65.152343c-.011718-.816407-.144531-1.621094-.402344-2.394531-.023437-.082032-.011718-.175782-.042968-.257813l-16.847656-48.503906-19.953126-57.433594c-.117187-.328125-.25-.652344-.40625-.964844-5.226562-10.453125-17.941406-14.691406-28.394531-9.464843-4.09375 2.050781-7.414062 5.371093-9.464843 9.464843-.152344.3125-.289063.636719-.40625.964844l-19.949219 57.433594-16.851563 48.503906c-.027344.082031-.015625.175781-.042968.257813-.253907.773437-.390626 1.578124-.402344 2.394531v80.832031h-16.167969v-40.417969c0-.25-.117187-.460937-.140625-.703125-.019531-.210937.066406-.410156.03125-.621094l-15.421875-92.519531c13.910156-12.03125 24.121094-27.761719 29.449219-45.363281.019531-.070312.019531-.148438.039062-.21875.019532-.0625.0625-.113281.082032-.175781.390624-1.300781.78125-2.605469 1.113281-3.960938 6.5625-26.609375-20.007813-50.933593-39.410157-68.683593-6.363281-5.171876-12.070312-11.105469-16.992187-17.660157-2.359375-4.003906-7.515625-5.339843-11.519531-2.980469-1.230469.726563-2.257813 1.75-2.980469 2.980469-4.921875 6.558594-10.628906 12.488281-16.992187 17.660157-19.402344 17.75-45.972657 42.074218-39.410157 68.691406.308594 1.253906.664063 2.453125 1.226563 4.339844l.007812.019531c5.332032 17.597656 15.542969 33.320312 29.449219 45.351562l-15.421875 92.519531c-.035156.210938.050781.410157.03125.621094-.019531.242188-.140625.453125-.140625.707032v40.414062h-32.332031v-291h452.664062zm0 0"/><path d="m194.453125 371.832031h16.167969v16.167969h-16.167969zm0 0"/><path d="m226.785156 371.832031h32.335938v16.167969h-32.335938zm0 0"/><path d="m275.285156 371.832031h16.167969v16.167969h-16.167969zm0 0"/><path d="m428.871094 113.167969h16.164062v-48.5h-97v16.164062h80.835938zm0 0"/><path d="m315.703125 64.667969h16.167969v16.164062h-16.167969zm0 0"/></svg>